<?xml version="1.0" encoding="UTF-8" standalone="no"?>
<!-- Created with Inkscape (http://www.inkscape.org/) -->

<svg
   width="210mm"
   height="297mm"
   viewBox="0 0 210 297"
   version="1.1"
   id="svg5"
   inkscape:version="1.1.1 (3bf5ae0d25, 2021-09-20)"
   sodipodi:docname="GoilGen_Logo.svg"
   xmlns:inkscape="http://www.inkscape.org/namespaces/inkscape"
   xmlns:sodipodi="http://sodipodi.sourceforge.net/DTD/sodipodi-0.dtd"
   xmlns="http://www.w3.org/2000/svg"
   xmlns:svg="http://www.w3.org/2000/svg">
  <style
     id="style28705">
.measure-arrow
{
}
.measure-label
{

}
.measure-line
{
}</style>
  <sodipodi:namedview
     id="namedview7"
     pagecolor="#ffffff"
     bordercolor="#666666"
     borderopacity="1.0"
     inkscape:pageshadow="2"
     inkscape:pageopacity="0.0"
     inkscape:pagecheckerboard="0"
     inkscape:document-units="mm"
     showgrid="false"
     inkscape:zoom="1.204492"
     inkscape:cx="427.15103"
     inkscape:cy="264.42683"
     inkscape:window-width="1920"
     inkscape:window-height="1137"
     inkscape:window-x="-8"
     inkscape:window-y="-8"
     inkscape:window-maximized="1"
     inkscape:current-layer="layer1"
     inkscape:snap-nodes="false" />
  <defs
     id="defs2">
    <inkscape:path-effect
       effect="powerclip"
       id="path-effect20668"
       is_visible="true"
       lpeversion="1"
       inverse="true"
       flatten="false"
       hide_clip="false"
       message="Füllregel Gerade-Ungerade im &lt;b&gt;Füllung und Kontur&lt;/b&gt;-Dialog verwenden, wenn das Anwenden des Ausschnitts mit nachfolgendem Umwandeln in Pfade kein Ergebnis bringt" />
    <inkscape:path-effect
       effect="offset"
       id="path-effect20182"
       is_visible="true"
       lpeversion="1"
       linejoin_type="miter"
       unit="mm"
       offset="-0.1"
       miter_limit="4"
       attempt_force_join="false"
       update_on_knot_move="true" />
    <inkscape:path-effect
       effect="offset"
       id="path-effect20178"
       is_visible="true"
       lpeversion="1"
       linejoin_type="miter"
       unit="mm"
       offset="-1.3"
       miter_limit="4"
       attempt_force_join="false"
       update_on_knot_move="true" />
    <inkscape:path-effect
       effect="offset"
       id="path-effect17268"
       is_visible="true"
       lpeversion="1"
       linejoin_type="miter"
       unit="mm"
       offset="-0.1"
       miter_limit="4"
       attempt_force_join="false"
       update_on_knot_move="true" />
    <inkscape:path-effect
       effect="offset"
       id="path-effect17264"
       is_visible="true"
       lpeversion="1"
       linejoin_type="miter"
       unit="mm"
       offset="-1.3"
       miter_limit="4"
       attempt_force_join="false"
       update_on_knot_move="true" />
    <inkscape:path-effect
       effect="offset"
       id="path-effect17026"
       is_visible="true"
       lpeversion="1"
       linejoin_type="miter"
       unit="mm"
       offset="-0.1"
       miter_limit="4"
       attempt_force_join="false"
       update_on_knot_move="true" />
    <inkscape:path-effect
       effect="offset"
       id="path-effect17022"
       is_visible="true"
       lpeversion="1"
       linejoin_type="miter"
       unit="mm"
       offset="-1.3"
       miter_limit="4"
       attempt_force_join="false"
       update_on_knot_move="true" />
    <inkscape:path-effect
       effect="simplify"
       id="path-effect15971"
       is_visible="true"
       lpeversion="1"
       steps="1"
       threshold="0.00961538"
       smooth_angles="360"
       helper_size="0"
       simplify_individual_paths="false"
       simplify_just_coalesce="false" />
    <inkscape:path-effect
       effect="offset"
       id="path-effect15943"
       is_visible="true"
       lpeversion="1"
       linejoin_type="miter"
       unit="mm"
       offset="-0.1"
       miter_limit="4"
       attempt_force_join="false"
       update_on_knot_move="true" />
    <inkscape:path-effect
       effect="offset"
       id="path-effect15861"
       is_visible="true"
       lpeversion="1"
       linejoin_type="miter"
       unit="mm"
       offset="-1.3"
       miter_limit="4"
       attempt_force_join="false"
       update_on_knot_move="true" />
    <inkscape:path-effect
       effect="simplify"
       id="path-effect14852"
       is_visible="true"
       lpeversion="1"
       steps="1"
       threshold="0.00961538"
       smooth_angles="360"
       helper_size="0"
       simplify_individual_paths="false"
       simplify_just_coalesce="false" />
    <inkscape:path-effect
       effect="interpolate_points"
       id="path-effect12023"
       is_visible="true"
       lpeversion="1"
       interpolator_type="CubicBezierFit" />
    <inkscape:path-effect
       effect="powerclip"
       id="path-effect3878"
       is_visible="true"
       lpeversion="1"
       inverse="true"
       flatten="false"
       hide_clip="false"
       message="Füllregel Gerade-Ungerade im &lt;b&gt;Füllung und Kontur&lt;/b&gt;-Dialog verwenden, wenn das Anwenden des Ausschnitts mit nachfolgendem Umwandeln in Pfade kein Ergebnis bringt" />
    <inkscape:path-effect
       effect="simplify"
       id="path-effect3763"
       is_visible="true"
       lpeversion="1"
       steps="1"
       threshold="0.00961538"
       smooth_angles="360"
       helper_size="0"
       simplify_individual_paths="false"
       simplify_just_coalesce="false" />
    <inkscape:path-effect
       effect="simplify"
       id="path-effect36864"
       is_visible="true"
       lpeversion="1"
       steps="1"
       threshold="0.00961538"
       smooth_angles="360"
       helper_size="0"
       simplify_individual_paths="false"
       simplify_just_coalesce="false" />
    <inkscape:path-effect
       effect="simplify"
       id="path-effect24746"
       is_visible="true"
       lpeversion="1"
       steps="1"
       threshold="0.00961538"
       smooth_angles="360"
       helper_size="0"
       simplify_individual_paths="false"
       simplify_just_coalesce="false" />
    <inkscape:path-effect
       effect="simplify"
       id="path-effect24643"
       is_visible="true"
       lpeversion="1"
       steps="1"
       threshold="0.00961538"
       smooth_angles="360"
       helper_size="0"
       simplify_individual_paths="false"
       simplify_just_coalesce="false" />
    <inkscape:path-effect
       effect="simplify"
       id="path-effect17226"
       is_visible="true"
       lpeversion="1"
       steps="1"
       threshold="0.00961538"
       smooth_angles="360"
       helper_size="0"
       simplify_individual_paths="false"
       simplify_just_coalesce="false" />
    <inkscape:path-effect
       effect="simplify"
       id="path-effect16737"
       is_visible="true"
       lpeversion="1"
       steps="1"
       threshold="0.00961538"
       smooth_angles="360"
       helper_size="0"
       simplify_individual_paths="false"
       simplify_just_coalesce="false" />
    <inkscape:path-effect
       effect="simplify"
       id="path-effect16554"
       is_visible="true"
       lpeversion="1"
       steps="1"
       threshold="0.00961538"
       smooth_angles="360"
       helper_size="0"
       simplify_individual_paths="false"
       simplify_just_coalesce="false" />
    <inkscape:path-effect
       effect="simplify"
       id="path-effect14414"
       is_visible="true"
       lpeversion="1"
       steps="1"
       threshold="0.00961538"
       smooth_angles="360"
       helper_size="0"
       simplify_individual_paths="false"
       simplify_just_coalesce="false" />
    <inkscape:path-effect
       effect="simplify"
       id="path-effect14311"
       is_visible="true"
       lpeversion="1"
       steps="1"
       threshold="0.00961538"
       smooth_angles="360"
       helper_size="0"
       simplify_individual_paths="false"
       simplify_just_coalesce="false" />
    <inkscape:path-effect
       effect="simplify"
       id="path-effect14241"
       is_visible="true"
       lpeversion="1"
       steps="1"
       threshold="0.00961538"
       smooth_angles="360"
       helper_size="0"
       simplify_individual_paths="false"
       simplify_just_coalesce="false" />
    <inkscape:path-effect
       effect="simplify"
       id="path-effect13775"
       is_visible="true"
       lpeversion="1"
       steps="1"
       threshold="0.00961538"
       smooth_angles="360"
       helper_size="0"
       simplify_individual_paths="false"
       simplify_just_coalesce="false" />
    <inkscape:path-effect
       effect="simplify"
       id="path-effect12987"
       is_visible="true"
       lpeversion="1"
       steps="1"
       threshold="0.00961538"
       smooth_angles="360"
       helper_size="0"
       simplify_individual_paths="false"
       simplify_just_coalesce="false" />
    <inkscape:path-effect
       effect="simplify"
       id="path-effect12851"
       is_visible="true"
       lpeversion="1"
       steps="1"
       threshold="0.00961538"
       smooth_angles="360"
       helper_size="0"
       simplify_individual_paths="false"
       simplify_just_coalesce="false" />
    <inkscape:path-effect
       effect="powerclip"
       id="path-effect12033"
       is_visible="true"
       lpeversion="1"
       inverse="true"
       flatten="false"
       hide_clip="false"
       message="Füllregel Gerade-Ungerade im &lt;b&gt;Füllung und Kontur&lt;/b&gt;-Dialog verwenden, wenn das Anwenden des Ausschnitts mit nachfolgendem Umwandeln in Pfade kein Ergebnis bringt" />
    <inkscape:path-effect
       effect="simplify"
       id="path-effect11912"
       is_visible="true"
       lpeversion="1"
       steps="1"
       threshold="0.00961538"
       smooth_angles="360"
       helper_size="0"
       simplify_individual_paths="false"
       simplify_just_coalesce="false" />
    <inkscape:path-effect
       effect="simplify"
       id="path-effect3489"
       is_visible="true"
       lpeversion="1"
       steps="1"
       threshold="0.00961538"
       smooth_angles="360"
       helper_size="0"
       simplify_individual_paths="false"
       simplify_just_coalesce="false" />
    <inkscape:path-effect
       effect="simplify"
       id="path-effect3470"
       is_visible="true"
       lpeversion="1"
       steps="1"
       threshold="0.00961538"
       smooth_angles="360"
       helper_size="0"
       simplify_individual_paths="false"
       simplify_just_coalesce="false" />
    <inkscape:path-effect
       effect="simplify"
       id="path-effect1417"
       is_visible="true"
       lpeversion="1"
       steps="1"
       threshold="0.00961538"
       smooth_angles="360"
       helper_size="0"
       simplify_individual_paths="false"
       simplify_just_coalesce="false" />
    <inkscape:path-effect
       effect="simplify"
       id="path-effect913"
       is_visible="true"
       lpeversion="1"
       steps="1"
       threshold="0.00961538"
       smooth_angles="360"
       helper_size="0"
       simplify_individual_paths="false"
       simplify_just_coalesce="false" />
    <rect
       x="100.29386"
       y="133.72514"
       width="385.7456"
       height="353.60013"
       id="rect719" />
    <rect
       x="100.29386"
       y="133.72514"
       width="385.74561"
       height="353.60013"
       id="rect719-4" />
    <clipPath
       clipPathUnits="userSpaceOnUse"
       id="clipPath12029">
      <path
         style="display:block;fill:none;stroke:#000000;stroke-width:0.264583px;stroke-linecap:butt;stroke-linejoin:miter;stroke-opacity:1"
         d="m 54.773195,26.536081 c 2.133189,0.593387 3.830839,2.303618 6.043479,2.598611 1.564792,0.208621 1.844079,-1.069968 0.669742,-1.999133 -1.357598,-1.074165 -1.306762,-5.088823 -2.758325,-4.171642 -1.486959,0.939546 -2.800646,2.244718 -3.954896,3.572164 z"
         id="path12031"
         inkscape:original-d="m 54.773195,26.536081 c 0.724741,0.238694 1.41441,0.558366 2.083763,0.893043 1.994469,0.997233 4.00657,2.584926 5.485826,1.10567 0.362492,-0.362495 -1.339318,-1.83252 -1.488403,-2.041237 -0.529365,-0.741111 -1.389354,-3.161173 -2.12629,-3.52964 -0.25451,-0.127255 -3.7818,3.139431 -3.954896,3.572164 z"
         inkscape:path-effect="#path-effect11912" />
    </clipPath>
    <clipPath
       clipPathUnits="userSpaceOnUse"
       id="clipPath3874">
      <path
         style="display:block;fill:none;stroke:#000000;stroke-width:0.264583px;stroke-linecap:butt;stroke-linejoin:miter;stroke-opacity:1"
         d="m 80.678515,30.040191 c -0.401486,-0.902961 -1.812769,-1.52051 -1.581226,-2.473215 0.20904,-0.860116 1.526103,-0.80266 2.189275,-0.575896 0.364923,0.124781 1.435592,-0.692474 0.937446,0.158865 -0.550393,0.94063 -0.661151,2.149217 -1.545495,2.890246 z"
         id="path3876"
         inkscape:original-d="m 80.678515,30.040191 c -1.02792,-2.07872 -3.020978,-3.037096 0.03007,-3.037096 2.754098,0 1.708036,-0.733845 1.202809,0.781827 -0.286909,0.860722 -0.615572,1.715127 -1.232879,2.255269 z"
         inkscape:path-effect="#path-effect3763" />
    </clipPath>
    <clipPath
       clipPathUnits="userSpaceOnUse"
       id="clipPath20664">
      <path
         id="lpe_path-effect20668"
         style="fill:none;stroke:#ff0000;stroke-width:0.391345;paint-order:stroke markers fill"
         class="powerclip"
         d="m 86.630778,129.6799 h 52.272182 v 50.92102 H 86.630778 Z m 34.468832,-3.63302 c 0,8.05599 0,16.11197 0,24.16796 6.41276,0 12.82552,0 19.23828,0 0,-8.05599 0,-16.11197 0,-24.16796 -6.41276,0 -12.82552,0 -19.23828,0 z" />
    </clipPath>
  </defs>
  <g
     inkscape:label="Ebene 1"
     inkscape:groupmode="layer"
     id="layer1">
    <g
       aria-label="CoilGen"
       transform="matrix(0.86879883,0,0,0.86879883,-61.636705,-86.486603)"
       id="text717"
       style="font-size:40px;line-height:1.25;font-family:Magneto;-inkscape-font-specification:'Magneto, Normal';white-space:pre;shape-inside:url(#rect719);stroke:#0e009e;stroke-opacity:1"
       inkscape:export-filename="C:\Users\amrein\Documents\PhD_Work\Own_Publications\CoilGen_Documentation_8_2_2022\GoilGen_Logo.png"
       inkscape:export-xdpi="500"
       inkscape:export-ydpi="500">
      <path
         d="m 136.53157,141.1558 q 0,3.21003 -2.53745,5.4112 -2.41517,2.07887 -5.65577,2.07887 -3.27119,0 -5.71692,-2.07887 -2.53745,-2.20117 -2.53745,-5.4112 0,-1.07001 0.24457,-1.83431 -6.54235,0.0612 -11.89241,6.78693 -5.01376,6.35892 -5.01376,13.0847 0,12.62614 16.47816,12.62614 h 15.37759 q -0.94773,4.89147 -7.42893,4.89147 h -11.28098 q -10.54725,0 -17.12017,-3.05716 -9.018658,-4.21892 -8.926948,-13.72673 0.06121,-5.31947 3.271167,-10.63895 4.371771,-7.27608 12.412141,-11.49498 7.79578,-4.09662 16.56988,-4.09662 h 6.11435 q 2.96545,0 5.2889,2.26231 2.35403,2.26232 2.35403,5.1972 z"
         id="path2646"
         style="stroke-width:1.56527;stroke:#0e009e;stroke-opacity:1" />
      <path
         d="m 163.73047,157.33789 q -0.78125,3.125 -4.6875,3.125 h -12.22656 q 0.64453,0.42969 1.05468,1.58203 0.41016,1.13281 0.33203,1.97266 -0.27343,3.26172 -2.87109,5.11719 -2.48047,1.77734 -6.44531,1.79687 -4.60938,0.0391 -7.08985,-1.81641 -2.20703,-1.64062 -2.20703,-4.3164 0,-0.52735 0.0977,-1.05469 0.50781,-2.94922 2.92969,-4.62891 2.57812,-1.77734 6.875,-1.77734 z m -21.28906,3.125 h -4.47266 l -1.75781,5 q -0.13672,0.39063 -0.13672,0.74219 0,1.67969 3.125,1.67969 0.37109,0 0.64453,-0.0195 z"
         id="path2648"
         style="stroke:#0e009e;stroke-opacity:1" />
      <path
         d="m 167.20703,149.33008 q 0,1.95312 -1.52344,3.32031 -1.5039,1.36719 -3.63281,1.36719 -2.16797,0 -3.69141,-1.36719 -1.5039,-1.36719 -1.5039,-3.32031 0,-1.9336 1.5039,-3.30078 1.52344,-1.36719 3.69141,-1.36719 2.12891,0 3.63281,1.36719 1.52344,1.36718 1.52344,3.30078 z m 1.40625,18.16406 q -0.50781,1.71875 -2.10937,2.53906 -1.15235,0.58594 -2.5,0.58594 h -7.71485 q -2.79297,0 -2.79297,-2.34375 0,-0.66406 0.27344,-1.42578 l 3.39844,-9.51172 h 7.08984 l -3.61328,10.15625 z"
         id="path2650"
         style="stroke:#0e009e;stroke-opacity:1" />
      <path
         d="m 183.73047,167.49414 q -0.48828,1.71875 -2.2461,2.53906 -1.23046,0.58594 -2.63671,0.58594 h -7.51954 q -2.89062,0 -2.89062,-1.97266 0,-0.50781 0.21484,-1.15234 l 7.2461,-20.42969 h 6.91406 l -7.28516,20.42969 z"
         id="path2652"
         style="stroke:#0e009e;stroke-opacity:1" />
      <path
         d="m 216.50391,147.86523 q 0,2.03125 -1.6211,3.37891 -1.52344,1.28906 -3.59375,1.28906 -2.05078,0 -3.59375,-1.28906 -1.60156,-1.34766 -1.60156,-3.37891 0,-0.625 0.19531,-1.36718 h -0.42969 q -4.70703,0 -8.4375,4.25781 -3.61328,4.10156 -3.61328,8.86719 0,4.0039 2.98828,6.07422 2.57813,1.79687 6.77735,1.79687 l 3.63281,-10.15625 h 7.28516 q -1.60157,4.62891 -4.84375,13.84766 -1.54297,4.35547 -7.38282,4.35547 -0.68359,0 -1.5625,-0.0391 L 202.5,170.61914 q -6.79688,0 -11.07422,-1.97266 -5.82031,-2.69531 -5.82031,-8.67187 0,-3.32031 2.05078,-6.75781 2.87109,-4.82422 8.28125,-7.53907 5.09766,-2.53906 10.99609,-2.53906 h 4.35547 q 2.03125,0 3.57422,1.34766 1.64063,1.38672 1.64063,3.3789 z"
         id="path2654"
         style="stroke:#0e009e;stroke-opacity:1" />
      <path
         d="m 242.59766,167.49414 q -0.41016,1.50391 -1.875,2.36328 -1.3086,0.76172 -2.98829,0.76172 h -10.8789 q -9.49219,0 -9.49219,-5.72266 0,-3.67187 3.24219,-5.76171 2.79297,-1.79688 6.64062,-1.79688 h 2.83203 q 2.48047,0 4.35547,0.76172 2.5,1.01562 2.61719,3.08594 0.0977,2.08984 -2.01172,3.47656 h -6.46484 l 2.10937,-4.19922 h -4.12109 l -1.60156,4.70703 q -0.13672,0.41016 -0.13672,0.74219 0,1.58203 2.53906,1.58203 z"
         id="path2656"
         style="stroke:#0e009e;stroke-opacity:1" />
      <path
         d="m 269.23828,167.49414 q -0.50781,1.71875 -2.24609,2.53906 -1.23047,0.58594 -2.63672,0.58594 h -7.79297 q -2.67578,0 -2.67578,-1.75781 0,-0.58594 0.27344,-1.36719 l 1.48437,-4.19922 -6.71875,5.6836 q -2.36328,1.64062 -3.88672,1.64062 h -3.59375 l 4.66797,-13.28125 h 7.05078 l -2.20703,6.25 5.95703,-4.88281 q 2.42188,-1.97266 5.25391,-1.89453 1.91406,0.0781 1.91406,2.03125 0,0.72265 -0.3125,1.62109 l -2.51953,7.03125 z"
         id="path2658"
         style="stroke:#0e009e;stroke-opacity:1" />
    </g>
    <g
       aria-label="CoilGen"
       transform="matrix(0.86879883,0,0,0.86879883,-57.161168,-27.205348)"
       id="text717-7"
       style="font-size:40px;line-height:1.25;font-family:Magneto;-inkscape-font-specification:'Magneto, Normal';white-space:pre;shape-inside:url(#rect719);stroke:#0e009e;stroke-opacity:1"
       inkscape:export-filename="C:\Users\amrein\Documents\PhD_Work\Own_Publications\CoilGen_Documentation_8_2_2022\GoilGen_Logo.png"
       inkscape:export-xdpi="500"
       inkscape:export-ydpi="500">
      <path
         d="m 136.53157,141.1558 q 0,3.21003 -2.53745,5.4112 -2.41517,2.07887 -5.65577,2.07887 -3.27119,0 -5.71692,-2.07887 -2.53745,-2.20117 -2.53745,-5.4112 0,-1.07001 0.24457,-1.83431 -6.54235,0.0612 -11.89241,6.78693 -5.01376,6.35892 -5.01376,13.0847 0,12.62614 16.47816,12.62614 h 15.37759 q -0.94773,4.89147 -7.42893,4.89147 h -11.28098 q -10.54725,0 -17.12017,-3.05716 -9.018658,-4.21892 -8.926948,-13.72673 0.06121,-5.31947 3.271167,-10.63895 4.371771,-7.27608 12.412141,-11.49498 7.79578,-4.09662 16.56988,-4.09662 h 6.11435 q 2.96545,0 5.2889,2.26231 2.35403,2.26232 2.35403,5.1972 z"
         id="path2646-5"
         style="stroke:#0e009e;stroke-width:1.56527;stroke-opacity:1" />
      <path
         d="m 163.73047,157.33789 q -0.78125,3.125 -4.6875,3.125 h -12.22656 q 0.64453,0.42969 1.05468,1.58203 0.41016,1.13281 0.33203,1.97266 -0.27343,3.26172 -2.87109,5.11719 -2.48047,1.77734 -6.44531,1.79687 -4.60938,0.0391 -7.08985,-1.81641 -2.20703,-1.64062 -2.20703,-4.3164 0,-0.52735 0.0977,-1.05469 0.50781,-2.94922 2.92969,-4.62891 2.57812,-1.77734 6.875,-1.77734 z m -21.28906,3.125 h -4.47266 l -1.75781,5 q -0.13672,0.39063 -0.13672,0.74219 0,1.67969 3.125,1.67969 0.37109,0 0.64453,-0.0195 z"
         id="path2648-9"
         style="stroke:#0e009e;stroke-opacity:1" />
      <path
         d="m 167.20703,149.33008 q 0,1.95312 -1.52344,3.32031 -1.5039,1.36719 -3.63281,1.36719 -2.16797,0 -3.69141,-1.36719 -1.5039,-1.36719 -1.5039,-3.32031 0,-1.9336 1.5039,-3.30078 1.52344,-1.36719 3.69141,-1.36719 2.12891,0 3.63281,1.36719 1.52344,1.36718 1.52344,3.30078 z m 1.40625,18.16406 q -0.50781,1.71875 -2.10937,2.53906 -1.15235,0.58594 -2.5,0.58594 h -7.71485 q -2.79297,0 -2.79297,-2.34375 0,-0.66406 0.27344,-1.42578 l 3.39844,-9.51172 h 7.08984 l -3.61328,10.15625 z"
         id="path2650-8"
         style="stroke:#0e009e;stroke-opacity:1" />
      <path
         d="m 183.73047,167.49414 q -0.48828,1.71875 -2.2461,2.53906 -1.23046,0.58594 -2.63671,0.58594 h -7.51954 q -2.89062,0 -2.89062,-1.97266 0,-0.50781 0.21484,-1.15234 l 7.2461,-20.42969 h 6.91406 l -7.28516,20.42969 z"
         id="path2652-7"
         style="stroke:#0e009e;stroke-opacity:1" />
      <path
         d="m 216.50391,147.86523 q 0,2.03125 -1.6211,3.37891 -1.52344,1.28906 -3.59375,1.28906 -2.05078,0 -3.59375,-1.28906 -1.60156,-1.34766 -1.60156,-3.37891 0,-0.625 0.19531,-1.36718 h -0.42969 q -4.70703,0 -8.4375,4.25781 -3.61328,4.10156 -3.61328,8.86719 0,4.0039 2.98828,6.07422 2.57813,1.79687 6.77735,1.79687 l 3.63281,-10.15625 h 7.28516 q -1.60157,4.62891 -4.84375,13.84766 -1.54297,4.35547 -7.38282,4.35547 -0.68359,0 -1.5625,-0.0391 L 202.5,170.61914 q -6.79688,0 -11.07422,-1.97266 -5.82031,-2.69531 -5.82031,-8.67187 0,-3.32031 2.05078,-6.75781 2.87109,-4.82422 8.28125,-7.53907 5.09766,-2.53906 10.99609,-2.53906 h 4.35547 q 2.03125,0 3.57422,1.34766 1.64063,1.38672 1.64063,3.3789 z"
         id="path2654-5"
         style="stroke:#0e009e;stroke-opacity:1" />
      <path
         d="m 242.59766,167.49414 q -0.41016,1.50391 -1.875,2.36328 -1.3086,0.76172 -2.98829,0.76172 h -10.8789 q -9.49219,0 -9.49219,-5.72266 0,-3.67187 3.24219,-5.76171 2.79297,-1.79688 6.64062,-1.79688 h 2.83203 q 2.48047,0 4.35547,0.76172 2.5,1.01562 2.61719,3.08594 0.0977,2.08984 -2.01172,3.47656 h -6.46484 l 2.10937,-4.19922 h -4.12109 l -1.60156,4.70703 q -0.13672,0.41016 -0.13672,0.74219 0,1.58203 2.53906,1.58203 z"
         id="path2656-4"
         style="stroke:#0e009e;stroke-opacity:1" />
      <path
         d="m 269.23828,167.49414 q -0.50781,1.71875 -2.24609,2.53906 -1.23047,0.58594 -2.63672,0.58594 h -7.79297 q -2.67578,0 -2.67578,-1.75781 0,-0.58594 0.27344,-1.36719 l 1.48437,-4.19922 -6.71875,5.6836 q -2.36328,1.64062 -3.88672,1.64062 h -3.59375 l 4.66797,-13.28125 h 7.05078 l -2.20703,6.25 5.95703,-4.88281 q 2.42188,-1.97266 5.25391,-1.89453 1.91406,0.0781 1.91406,2.03125 0,0.72265 -0.3125,1.62109 l -2.51953,7.03125 z"
         id="path2658-3"
         style="stroke:#0e009e;stroke-opacity:1" />
    </g>
    <g
       aria-label="CoilGen"
       transform="matrix(0.86879883,0,0,0.86879883,-61.372234,-86.583131)"
       id="text717-3-9"
       style="font-size:40px;line-height:1.25;font-family:Magneto;-inkscape-font-specification:'Magneto, Normal';white-space:pre;shape-inside:url(#rect719)"
       clip-path="url(#clipPath20664)" />
    <g
       aria-label="CoilGen"
       transform="matrix(0.86879883,0,0,0.86879883,-77.652969,-128.95889)"
       id="text717-3-6-6"
       style="font-size:40px;line-height:1.25;font-family:Magneto;-inkscape-font-specification:'Magneto, Normal';white-space:pre;shape-inside:url(#rect719)"
       inkscape:path-effect="#path-effect17268" />
    <path
       id="path30674"
       style="fill:none;stroke:#ff0000;stroke-width:1.04;stroke-miterlimit:4;stroke-dasharray:none;paint-order:stroke markers fill"
       d="m 115.58266,64.673991 c 1.3656,-0.31906 2.59317,-0.822159 3.08987,-2.299745 l 4.0427,-10.530634 c -0.83134,-0.01754 -1.84988,-0.149776 -2.6157,-0.179897 -0.32951,-0.01296 -3.01428,7.990376 -3.33149,7.974325 -4.7461,-0.240156 -8.77031,-0.522275 -10.59361,-2.271921 -5.03337,-4.899671 -1.88105,-10.668434 3.22424,-14.494633 0.60446,-0.489642 1.26867,-0.909475 1.96473,-1.269934 0.87427,-0.450015 1.80103,-0.804798 2.75379,-1.070602 1.01728,-0.281035 3.75414,-0.751726 4.81394,-0.783618 l 0.8166,-0.550822 c 0.19339,-0.113952 0.40005,-0.212096 0.61752,-0.292313 0.21748,-0.08021 0.44574,-0.142504 0.68241,-0.184736 0.23665,-0.04223 0.48168,-0.06441 0.73266,-0.06441 0.25097,0 0.49601,0.02217 0.73266,0.06441 0.23666,0.04222 0.46494,0.104517 0.68239,0.184736 0.21748,0.08021 0.42414,0.178363 0.61755,0.292313 0.1934,0.113949 0.37354,0.243703 0.53802,0.387137 0.16447,0.143434 0.31326,0.300546 0.44391,0.469214 0.13066,0.168668 0.24321,0.34889 0.33518,0.538543 0.0921,0.189652 0.16341,0.388735 0.21184,0.595121 0.0484,0.206388 0.0739,0.42008 0.0739,0.638953 l -10e-6,2e-6 c 0,0.109436 -0.006,0.217576 -0.0188,0.324157 -0.0124,0.106579 -0.0131,0.216053 -0.0551,0.314793 l -0.33408,0.784411 -2.25113,0.638337 c -0.12445,0.0353 -0.26093,0.0349 -0.3969,0.0349 -0.13598,0 -0.26872,-0.01201 -0.39693,-0.0349 -0.12821,-0.02287 -0.25189,-0.05662 -0.3697,-0.100086 -0.11779,-0.04347 -0.22977,-0.09663 -0.33455,-0.158359 -0.10474,-0.06173 -0.20238,-0.132029 -0.29148,-0.209735 -0.0891,-0.07771 -0.1697,-0.162823 -0.2405,-0.254201 -0.0707,-0.09138 -0.13174,-0.189014 -0.18158,-0.291759 -0.0499,-0.102741 -0.0885,-0.2106 -0.11472,-0.322412 -0.0263,-0.111811 -0.04,-0.22758 -0.04,-0.346155 0,-0.118575 0.0138,-0.234345 0.04,-0.346156 0.0263,-0.111812 0.0649,-0.219665 0.11472,-0.322412 0.0498,-0.102741 0.11078,-0.200381 0.18158,-0.291757 0.0709,-0.09138 0.1514,-0.176495 0.2405,-0.2542 0.0891,-0.07771 0.18671,-0.148001 0.29148,-0.209736 0.10475,-0.06173 0.21673,-0.114902 0.33455,-0.158361 0.11781,-0.04347 0.24149,-0.0772 0.3697,-0.100085 0.12821,-0.02287 0.26095,-0.0349 0.39693,-0.0349 0.13597,0 0.2687,0.01202 0.3969,0.0349 0.12822,0.02287 0.2519,0.05662 0.36972,0.100085 0.1178,0.04348 0.22977,0.09663 0.33453,0.158362 0.10475,0.06173 0.20239,0.132029 0.29149,0.209735 0.0891,0.07771 0.16972,0.162823 0.24051,0.2542 0.0707,0.09138 0.13175,0.189014 0.18158,0.291758 0.0499,0.102742 0.0885,0.2106 0.11472,0.322412 0.0263,0.111811 0.0401,0.227582 0.0401,0.346156 v -1e-6 l 0.0514,1.802848 -1.18533,0.739436 c -0.096,0.0599 -0.22017,0.07574 -0.33399,0.106611 -0.11386,0.03087 -0.23008,0.05701 -0.34841,0.07811 -0.11829,0.0211 -0.23874,0.03722 -0.36095,0.04804 -0.12224,0.01083 -0.24622,0.01638 -0.3717,0.01638 -0.25098,0 -0.49602,-0.02217 -0.73266,-0.06441 -0.23667,-0.04223 -0.46496,-0.104515 -0.68242,-0.184736 -0.21746,-0.08021 -0.42412,-0.178361 -0.61753,-0.29231 -0.1934,-0.113951 -0.37356,-0.243704 -0.53803,-0.387138 -0.16447,-0.143435 -0.31324,-0.300547 -0.44392,-0.469216 -0.13066,-0.168667 -0.2432,-0.348889 -0.33518,-0.538541 -0.092,-0.189652 -0.1634,-0.388734 -0.21183,-0.595122 -0.0484,-0.206387 -0.0738,-0.420079 -0.0738,-0.63895 0,-0.218874 0.0255,-0.432566 0.0738,-0.638953 l 0.39653,-2.779852 c -3.39098,0.304647 -6.84037,1.642488 -9.65304,3.02581 -10.181697,5.187991 -9.966162,18.126805 2.19116,19.500434 1.49329,0.219446 3.06547,0.258842 5.00299,0.246804 l -1.33026,2.599721 -7.68718,1.935467 c -3.08218,0.330083 -11.98447,0.568659 -22.485996,0.568659 -10.374817,0 -19.18876,-0.232853 -22.371893,-0.556751 l -8.737999,-1.68938 c -3.378892,-3.66e-4 -7.691366,0.05722 -11.070256,0.05419 -2.478822,-0.0232 -5.570225,-0.01207 -7.969083,-0.652524 -16.241345,-3.540607 -12.056153,-19.7579 -3.349176,-25.931565 0.904663,-0.766046 1.89876,-1.422875 2.940519,-1.986812 1.308472,-0.704049 2.695501,-1.259107 4.121425,-1.674958 1.522527,-0.439681 5.618636,-1.176075 7.204794,-1.22597 l 1.222031,-0.861803 c 0.289459,-0.178276 0.598747,-0.331823 0.924221,-0.457322 0.325472,-0.125492 0.667125,-0.222946 1.021317,-0.28902 0.354192,-0.06607 0.720919,-0.100778 1.096537,-0.100778 0.37562,0 0.742347,0.0347 1.096539,0.100778 0.354189,0.06607 0.695845,0.163517 1.021317,0.28902 0.325471,0.125493 0.634761,0.279048 0.924221,0.457322 0.289459,0.178274 0.559088,0.381273 0.80524,0.605676 0.246155,0.224402 0.468831,0.470205 0.664388,0.734086 0.195555,0.26388 0.363987,0.545838 0.501649,0.84255 0.137657,0.29671 0.244557,0.608175 0.317036,0.931066 0.07248,0.322894 0.110548,0.657214 0.110548,0.99964 l -2.2e-5,3e-6 c 0,0.171213 -0.0096,0.340401 -0.02808,0.507146 -0.01858,0.166743 -0.01951,0.338015 -0.08244,0.492494 l -0.499995,1.22721 -3.369126,0.998678 c -0.186261,0.05521 -0.390562,0.05459 -0.594055,0.05459 -0.203494,0 -0.402172,-0.0188 -0.594056,-0.05459 -0.191887,-0.03579 -0.37698,-0.08859 -0.553307,-0.156582 -0.17632,-0.068 -0.343885,-0.151175 -0.500702,-0.247755 -0.156818,-0.09659 -0.30289,-0.206559 -0.436246,-0.32813 -0.133349,-0.121565 -0.253991,-0.254736 -0.359935,-0.397696 -0.10595,-0.14296 -0.197193,-0.295711 -0.271771,-0.456457 -0.07459,-0.160739 -0.132483,-0.329483 -0.17176,-0.504413 -0.03926,-0.174928 -0.05988,-0.35605 -0.05988,-0.54156 0,-0.185511 0.02063,-0.366632 0.05988,-0.541561 0.03926,-0.17493 0.09717,-0.343667 0.17176,-0.504412 0.07459,-0.16074 0.165829,-0.313498 0.271771,-0.456456 0.105951,-0.14296 0.226581,-0.276126 0.359936,-0.397696 0.13335,-0.121565 0.279429,-0.231548 0.436246,-0.32813 0.156817,-0.09659 0.324376,-0.179766 0.500701,-0.247756 0.17632,-0.068 0.36142,-0.120775 0.553307,-0.156581 0.191884,-0.03579 0.390562,-0.05459 0.594056,-0.05459 0.203493,0 0.402171,0.0188 0.594055,0.05459 0.191887,0.03579 0.37698,0.08859 0.553307,0.156581 0.17632,0.068 0.343885,0.151176 0.500702,0.247758 0.156818,0.09659 0.30289,0.206557 0.436246,0.328128 0.133348,0.121565 0.253993,0.254738 0.359937,0.397696 0.105926,0.14296 0.197191,0.295713 0.271771,0.456457 0.07459,0.160739 0.132484,0.329483 0.171759,0.504413 0.03926,0.174928 0.05988,0.35605 0.05988,0.541561 v -2e-6 l 0.07701,2.820557 -1.774024,1.156845 c -0.143713,0.09371 -0.329518,0.118493 -0.49989,0.166794 -0.170371,0.04831 -0.344333,0.08919 -0.521427,0.122222 -0.177095,0.03303 -0.357327,0.05823 -0.540233,0.07516 -0.182909,0.01694 -0.368496,0.02562 -0.556305,0.02562 -0.375618,0 -0.742345,-0.0347 -1.096537,-0.100778 -0.3542,-0.06607 -0.695853,-0.163515 -1.021325,-0.289019 -0.325474,-0.12549 -0.634762,-0.279043 -0.924221,-0.457317 -0.289459,-0.178276 -0.559088,-0.381275 -0.805243,-0.605678 -0.246154,-0.224402 -0.468831,-0.470204 -0.664386,-0.734086 -0.195555,-0.26388 -0.363987,-0.545838 -0.50165,-0.842548 -0.137657,-0.296712 -0.244557,-0.608175 -0.317036,-0.931068 -0.07248,-0.322894 -0.110548,-0.657214 -0.110548,-0.99964 0,-0.342426 0.03807,-0.676746 0.110548,-0.99964 l 0.813128,-3.964666 c -1.120641,0.102255 -3.159981,0.32183 -4.45641,0.603553 -1.449174,0.314915 -3.610323,0.62511 -4.805782,1.018271 -19.123484,7.035693 -21.097057,30.078058 -0.723396,32.812412 1.75235,0.160172 3.513057,0.212039 5.272201,0.202257 3.13189,-8.6e-4 6.263805,0.0026 9.395686,-8.69e-4 0.875523,-0.01616 2.696285,-0.155966 3.525623,-0.45313 l 9.014156,-0.56081 c 3.228074,-0.321054 9.049992,-0.0077 19.366474,-0.0077 10.421858,0 22.219849,-0.30867 25.366039,0.01752 z M 79.88968,45.09943 c -0.103335,0.0336 -0.216679,0.03322 -0.329574,0.03322 -0.112895,0 -0.223119,-0.01144 -0.329574,-0.03322 -0.106456,-0.02178 -0.209143,-0.05391 -0.306967,-0.09529 -0.09782,-0.04138 -0.190783,-0.092 -0.277783,-0.150775 -0.087,-0.05878 -0.168039,-0.125704 -0.242023,-0.199688 -0.07398,-0.07398 -0.140911,-0.155023 -0.199687,-0.242023 -0.05878,-0.087 -0.1094,-0.179959 -0.150775,-0.277783 -0.04138,-0.09782 -0.0735,-0.200511 -0.09529,-0.306967 -0.02178,-0.106455 -0.03322,-0.216679 -0.03322,-0.329574 0,-0.112895 0.01144,-0.223119 0.03322,-0.329574 0.02178,-0.106456 0.05391,-0.209143 0.09529,-0.306967 0.04138,-0.09782 0.092,-0.190783 0.150775,-0.277782 0.05878,-0.087 0.125704,-0.16804 0.199688,-0.242023 0.07398,-0.07398 0.155023,-0.140912 0.242023,-0.199688 0.087,-0.05878 0.179959,-0.109399 0.277782,-0.150775 0.09782,-0.04138 0.200511,-0.0735 0.306967,-0.09529 0.106455,-0.02178 0.216679,-0.03322 0.329574,-0.03322 0.112895,0 0.223119,0.01144 0.329574,0.03322 0.106456,0.02178 0.209143,0.05391 0.306967,0.09529 0.09782,0.04138 0.190783,0.092 0.277783,0.150776 0.087,0.05878 0.168039,0.125703 0.242023,0.199687 0.07398,0.07398 0.140912,0.155024 0.199688,0.242023 0.05877,0.087 0.109399,0.17996 0.150775,0.277783 0.04138,0.09782 0.0735,0.200511 0.09529,0.306967 0.02178,0.106455 0.03322,0.216679 0.03322,0.329574 v -1e-6 l 0.04272,1.716488 -0.984204,0.704013 c -0.07973,0.05703 -0.182812,0.07211 -0.277332,0.101505 -0.09452,0.0294 -0.191031,0.05428 -0.289281,0.07438 -0.09825,0.0201 -0.19824,0.03544 -0.299714,0.04574 -0.101475,0.01031 -0.204436,0.01559 -0.30863,0.01559 -0.208388,0 -0.411843,-0.02112 -0.608344,-0.06133 -0.196501,-0.04021 -0.386046,-0.09951 -0.566613,-0.175887 -0.180568,-0.07637 -0.352157,-0.169817 -0.512745,-0.278308 -0.160588,-0.108492 -0.310175,-0.23203 -0.446738,-0.368593 -0.136563,-0.136563 -0.260101,-0.286149 -0.368592,-0.446738 -0.108492,-0.160588 -0.201935,-0.332177 -0.278309,-0.512744 -0.07637,-0.180568 -0.135677,-0.370113 -0.175887,-0.566614 -0.04021,-0.196501 -0.06133,-0.399956 -0.06133,-0.608344 0,-0.208388 0.02112,-0.411843 0.06133,-0.608344 0.04021,-0.196501 0.09951,-0.386046 0.175887,-0.566613 0.07637,-0.180568 0.169817,-0.352157 0.278309,-0.512745 0.108491,-0.160588 0.232029,-0.310175 0.368592,-0.446738 0.136563,-0.136563 0.28615,-0.260101 0.446738,-0.368592 0.160588,-0.108492 0.332177,-0.201935 0.512745,-0.278309 0.180567,-0.07637 0.370112,-0.135677 0.566613,-0.175887 0.196501,-0.04021 0.399956,-0.06133 0.608344,-0.06133 0.208388,0 0.411843,0.02112 0.608344,0.06133 0.1965,0.04021 0.386046,0.09951 0.566613,0.175887 0.180567,0.07637 0.352157,0.169818 0.512745,0.278309 0.160588,0.108491 0.310175,0.232029 0.446737,0.368592 0.136563,0.136563 0.260101,0.28615 0.368593,0.446738 0.108491,0.160588 0.201935,0.332177 0.278308,0.512745 0.07637,0.180567 0.135677,0.370113 0.175887,0.566613 0.04021,0.196501 0.06133,0.399956 0.06133,0.608344 l -1.2e-5,2e-6 c 0,0.104194 -0.0053,0.207155 -0.01558,0.30863 -0.01031,0.101474 -0.01082,0.205704 -0.04574,0.299714 l -0.277388,0.746835 z"
       inkscape:export-filename="C:\Users\amrein\Documents\PhD_Work\Own_Publications\CoilGen_Documentation_8_2_2022\GoilGen_Logo.png"
       inkscape:export-xdpi="500"
       inkscape:export-ydpi="500"
       sodipodi:nodetypes="cccssccccccssssssssccssccccssssscccscscssssssssscccscccsssssssssscscccccccscccccccccssssssssssccccccssssssccssssssscssssscscscccssssscssssssccsccccccsccssssssssssssssssssssssssssccsssssssssssssssssssssssssssssscccs" />
  </g>
</svg>
